<svg xmlns="http://www.w3.org/2000/svg" viewBox="0 0 100 100">
  <rect width="100" height="100" fill="#1C1C1E"/>
  <rect x="18" y="16" width="64" height="22" rx="4" fill="white"/>
  <rect x="18" y="44" width="14" height="12" rx="3" fill="white"/>
  <rect x="36" y="44" width="14" height="12" rx="3" fill="white"/>
  <rect x="54" y="44" width="14" height="12" rx="3" fill="white"/>
  <rect x="72" y="44" width="10" height="12" rx="3" fill="#FF9500"/>
  <rect x="18" y="60" width="14" height="12" rx="3" fill="white"/>
  <rect x="36" y="60" width="14" height="12" rx="3" fill="white"/>
  <rect x="54" y="60" width="14" height="12" rx="3" fill="white"/>
  <rect x="72" y="60" width="10" height="12" rx="3" fill="#FF9500"/>
  <rect x="18" y="76" width="32" height="12" rx="3" fill="white"/>
  <rect x="54" y="76" width="14" height="12" rx="3" fill="white"/>
  <rect x="72" y="76" width="10" height="12" rx="3" fill="#FF9500"/>
</svg>