<svg xmlns="http://www.w3.org/2000/svg" viewBox="0 0 100 100">
  <rect width="100" height="100" fill="#FFFFFF"/>
  <path d="M50 50 L50 18 A32 32 0 0 1 77.7 34 Z" fill="#FF9500"/>
  <path d="M50 50 L77.7 34 A32 32 0 0 1 77.7 66 Z" fill="#FFD60A"/>
  <path d="M50 50 L77.7 66 A32 32 0 0 1 50 82 Z" fill="#34C759"/>
  <path d="M50 50 L50 82 A32 32 0 0 1 22.3 66 Z" fill="#5AC8FA"/>
  <path d="M50 50 L22.3 66 A32 32 0 0 1 22.3 34 Z" fill="#007AFF"/>
  <path d="M50 50 L22.3 34 A32 32 0 0 1 50 18 Z" fill="#FF3B30"/>
  <circle cx="50" cy="50" r="11" fill="white"/>
</svg>